<svg width="38" height="34" fill="none" xmlns="http://www.w3.org/2000/svg"><path d="M19 23.72a9.643 9.643 0 0 1-9.642-9.642V2.388a7.37 7.37 0 0 1 0-1.085.858.858 0 0 1 .962-.753.875.875 0 0 1 .77.963 7.135 7.135 0 0 0 0 .875v11.69a7.893 7.893 0 0 0 15.75 0V2.388a7.096 7.096 0 0 0 0-.875.882.882 0 0 1 1.75-.21c.027.36.027.723 0 1.085v11.69A9.642 9.642 0 0 1 19 23.72Z" fill="#fff"/><path d="M28.712 13.01a.875.875 0 0 1-.454-.14l-.945-.56a.88.88 0 0 1 .91-1.505l.717.438c5.407-.175 6.44-6.58 6.632-8.96H2.41c.192 2.397 1.172 8.75 6.65 8.96l.717-.438a.88.88 0 0 1 .91 1.505l-.944.56a.875.875 0 0 1-.456.14C2.446 13.01.625 5.415.625 1.408A.875.875 0 0 1 1.5.533h35a.875.875 0 0 1 .875.875c0 4.007-1.82 11.602-8.663 11.602ZM19 33.468a.875.875 0 0 1-.875-.875v-9.748a.875.875 0 0 1 1.75 0v9.748a.875.875 0 0 1-.875.875Z" fill="#fff"/><path d="M28.748 33.468h-17.5a.875.875 0 1 1 0-1.75h17.5a.875.875 0 0 1 0 1.75Z" fill="#fff"/></svg>