<svg width="13" height="13" viewBox="0 0 13 13" fill="none" xmlns="http://www.w3.org/2000/svg">
<path d="M6.6851 12.265C5.55676 12.265 4.45376 11.9304 3.51558 11.3035C2.5774 10.6766 1.84617 9.78564 1.41437 8.74319C0.982575 7.70074 0.869596 6.55365 1.08972 5.44699C1.30985 4.34033 1.8532 3.3238 2.65106 2.52594C3.44892 1.72808 4.46545 1.18473 5.57211 0.964603C6.67878 0.744474 7.82586 0.857452 8.86831 1.28925C9.91077 1.72105 10.8018 2.45227 11.4286 3.39045C12.0555 4.32864 12.3901 5.43164 12.3901 6.55998C12.3901 8.07304 11.789 9.52413 10.7191 10.594C9.64925 11.6639 8.19816 12.265 6.6851 12.265ZM6.6851 2.60498C5.90288 2.60498 5.13822 2.83694 4.48782 3.27152C3.83743 3.7061 3.33051 4.32379 3.03116 5.04647C2.73182 5.76915 2.65349 6.56437 2.8061 7.33157C2.9587 8.09876 3.33538 8.80347 3.8885 9.35659C4.44162 9.90971 5.14633 10.2864 5.91352 10.439C6.68072 10.5916 7.47594 10.5133 8.19862 10.2139C8.9213 9.91458 9.53899 9.40766 9.97357 8.75726C10.4081 8.10687 10.6401 7.34221 10.6401 6.55998C10.6401 5.51105 10.2234 4.50508 9.48171 3.76338C8.74001 3.02167 7.73404 2.60498 6.6851 2.60498Z" fill="#F38281"/>
</svg>
